<svg width="21" height="20" viewBox="0 0 21 20" fill="none" xmlns="http://www.w3.org/2000/svg">
<path d="M18.9137 0H1.11367C0.821934 0 0.542145 0.115893 0.335855 0.322183C0.129565 0.528473 0.0136719 0.808262 0.0136719 1.1V18.9C0.0136719 19.0445 0.0421243 19.1875 0.0974045 19.321C0.152685 19.4544 0.23371 19.5757 0.335855 19.6778C0.437999 19.78 0.559262 19.861 0.69272 19.9163C0.826178 19.9715 0.969218 20 1.11367 20H10.6937V12.25H8.09367V9.25H10.6937V7C10.6398 6.47176 10.7022 5.93813 10.8764 5.43654C11.0506 4.93495 11.3324 4.47755 11.7021 4.09641C12.0718 3.71528 12.5204 3.41964 13.0165 3.23024C13.5126 3.04083 14.044 2.96225 14.5737 3C15.352 2.99521 16.13 3.03528 16.9037 3.12V5.82H15.3137C14.0537 5.82 13.8137 6.42 13.8137 7.29V9.22H16.8137L16.4237 12.22H13.8137V20H18.9137C19.0581 20 19.2012 19.9715 19.3346 19.9163C19.4681 19.861 19.5893 19.78 19.6915 19.6778C19.7936 19.5757 19.8747 19.4544 19.9299 19.321C19.9852 19.1875 20.0137 19.0445 20.0137 18.9V1.1C20.0137 0.955546 19.9852 0.812506 19.9299 0.679048C19.8747 0.54559 19.7936 0.424327 19.6915 0.322183C19.5893 0.220038 19.4681 0.139013 19.3346 0.0837326C19.2012 0.0284524 19.0581 0 18.9137 0Z" fill="white"/>
</svg>
