<svg width="21" height="20" viewBox="0 0 21 20" fill="none" xmlns="http://www.w3.org/2000/svg">
<path d="M10.0137 7.52C9.52317 7.52 9.04369 7.66545 8.63586 7.93795C8.22802 8.21046 7.91016 8.59778 7.72245 9.05095C7.53474 9.50411 7.48563 10.0028 7.58132 10.4838C7.67702 10.9649 7.91321 11.4068 8.26005 11.7536C8.60688 12.1005 9.04877 12.3367 9.52985 12.4323C10.0109 12.528 10.5096 12.4789 10.9627 12.2912C11.4159 12.1035 11.8032 11.7856 12.0757 11.3778C12.3482 10.97 12.4937 10.4905 12.4937 10C12.4937 9.67432 12.4295 9.35183 12.3049 9.05095C12.1803 8.75006 11.9976 8.47666 11.7673 8.24638C11.537 8.01609 11.2636 7.83341 10.9627 7.70878C10.6618 7.58415 10.3393 7.52 10.0137 7.52ZM19.9437 5.07C19.9384 4.29776 19.7962 3.53257 19.5237 2.81C19.323 2.28126 19.0124 1.80109 18.6125 1.40119C18.2126 1.00128 17.7324 0.690718 17.2037 0.49C16.4811 0.217464 15.7159 0.0752609 14.9437 0.0699999C13.6537 -6.70552e-08 13.2737 0 10.0137 0C6.75367 0 6.37367 -6.70552e-08 5.08367 0.0699999C4.31143 0.0752609 3.54624 0.217464 2.82367 0.49C2.29493 0.690718 1.81477 1.00128 1.41486 1.40119C1.01495 1.80109 0.704389 2.28126 0.503672 2.81C0.231136 3.53257 0.0889328 4.29776 0.0836718 5.07C0.0136718 6.36 0.0136719 6.74 0.0136719 10C0.0136719 13.26 0.0136718 13.64 0.0836718 14.93C0.0944358 15.705 0.236446 16.4725 0.503672 17.2C0.7035 17.7263 1.0138 18.2037 1.41367 18.6C1.81187 19.0023 2.29306 19.3129 2.82367 19.51C3.54624 19.7825 4.31143 19.9247 5.08367 19.93C6.37367 20 6.75367 20 10.0137 20C13.2737 20 13.6537 20 14.9437 19.93C15.7159 19.9247 16.4811 19.7825 17.2037 19.51C17.7343 19.3129 18.2155 19.0023 18.6137 18.6C19.0135 18.2037 19.3238 17.7263 19.5237 17.2C19.7959 16.4739 19.9381 15.7055 19.9437 14.93C20.0137 13.64 20.0137 13.26 20.0137 10C20.0137 6.74 20.0137 6.36 19.9437 5.07ZM17.4037 13.07C17.3716 13.6871 17.2399 14.295 17.0137 14.87C16.8195 15.3497 16.5309 15.7854 16.165 16.1514C15.7991 16.5173 15.3634 16.8059 14.8837 17C14.3032 17.2136 13.6919 17.3318 13.0737 17.35C12.2837 17.35 12.0737 17.35 10.0137 17.35C7.95367 17.35 7.74367 17.35 6.95367 17.35C6.3354 17.3318 5.72416 17.2136 5.14367 17C4.64778 16.8157 4.19995 16.5217 3.83367 16.14C3.47134 15.7813 3.19152 15.3479 3.01367 14.87C2.79923 14.2901 2.68428 13.6782 2.67367 13.06C2.67367 12.27 2.67367 12.06 2.67367 10C2.67367 7.94 2.67367 7.73 2.67367 6.94C2.68428 6.32183 2.79923 5.70988 3.01367 5.13C3.19795 4.6341 3.49195 4.18628 3.87367 3.82C4.23401 3.45962 4.66694 3.18009 5.14367 3C5.72416 2.78641 6.3354 2.66821 6.95367 2.65C7.74367 2.65 7.95367 2.65 10.0137 2.65C12.0737 2.65 12.2837 2.65 13.0737 2.65C13.6919 2.66821 14.3032 2.78641 14.8837 3C15.3796 3.18428 15.8274 3.47827 16.1937 3.86C16.556 4.21875 16.8358 4.65213 17.0137 5.13C17.2273 5.71049 17.3455 6.32173 17.3637 6.94C17.3637 7.73 17.3637 7.94 17.3637 10C17.3637 12.06 17.4337 12.27 17.4037 13.06V13.07ZM15.8037 5.63C15.6846 5.30698 15.4969 5.01364 15.2535 4.77021C15.01 4.52678 14.7167 4.33906 14.3937 4.22C13.9501 4.06626 13.483 3.99179 13.0137 4C12.2337 4 12.0137 4 10.0137 4C8.01367 4 7.79367 4 7.01367 4C6.54194 4.00461 6.07474 4.09263 5.63367 4.26C5.3156 4.37366 5.02536 4.55371 4.78226 4.7882C4.53915 5.02269 4.34873 5.30624 4.22367 5.62C4.07845 6.06537 4.0075 6.5316 4.01367 7C4.01367 7.78 4.01367 8 4.01367 10C4.01367 12 4.01367 12.22 4.01367 13C4.02359 13.4712 4.11144 13.9375 4.27367 14.38C4.39274 14.703 4.58046 14.9964 4.82389 15.2398C5.06731 15.4832 5.36066 15.6709 5.68367 15.79C6.11034 15.9469 6.55932 16.0347 7.01367 16.05C7.79367 16.05 8.01367 16.05 10.0137 16.05C12.0137 16.05 12.2337 16.05 13.0137 16.05C13.4854 16.0454 13.9526 15.9574 14.3937 15.79C14.7167 15.6709 15.01 15.4832 15.2535 15.2398C15.4969 14.9964 15.6846 14.703 15.8037 14.38C15.971 13.9389 16.0591 13.4717 16.0637 13C16.0637 12.22 16.0637 12 16.0637 10C16.0637 8 16.0637 7.78 16.0637 7C16.064 6.5278 15.9758 6.05972 15.8037 5.62V5.63ZM10.0137 13.82C9.51249 13.82 9.01624 13.7211 8.55333 13.529C8.09043 13.3369 7.66998 13.0554 7.31605 12.7005C6.96213 12.3457 6.6817 11.9245 6.49082 11.4611C6.29993 10.9977 6.20236 10.5012 6.20367 10C6.20367 9.24405 6.42797 8.5051 6.84816 7.87669C7.26835 7.24828 7.86554 6.75866 8.56414 6.46983C9.26274 6.181 10.0313 6.10594 10.7726 6.25415C11.5139 6.40236 12.1945 6.76717 12.7284 7.30241C13.2622 7.83764 13.6252 8.51924 13.7715 9.2609C13.9178 10.0026 13.8407 10.771 13.55 11.4688C13.2594 12.1666 12.7682 12.7625 12.1387 13.1811C11.5092 13.5996 10.7696 13.822 10.0137 13.82ZM14.0137 6.93C13.7926 6.9066 13.588 6.80222 13.4394 6.63697C13.2907 6.47172 13.2084 6.25729 13.2084 6.035C13.2084 5.81271 13.2907 5.59828 13.4394 5.43303C13.588 5.26778 13.7926 5.1634 14.0137 5.14C14.2347 5.1634 14.4393 5.26778 14.588 5.43303C14.7367 5.59828 14.8189 5.81271 14.8189 6.035C14.8189 6.25729 14.7367 6.47172 14.588 6.63697C14.4393 6.80222 14.2347 6.9066 14.0137 6.93Z" fill="white"/>
</svg>
