<svg width="21" height="18" viewBox="0 0 21 18" fill="none" xmlns="http://www.w3.org/2000/svg">
<path d="M20.0137 2.80998C19.262 3.13607 18.4671 3.35164 17.6537 3.44998C18.5118 2.9373 19.1549 2.13076 19.4637 1.17998C18.6572 1.66004 17.7744 1.99827 16.8537 2.17998C16.2382 1.51255 15.4186 1.06827 14.5235 0.916827C13.6283 0.765382 12.7082 0.915334 11.9075 1.34316C11.1067 1.771 10.4706 2.45251 10.0989 3.28081C9.72722 4.10912 9.64096 5.03736 9.85367 5.91997C8.2231 5.8375 6.62811 5.41293 5.17233 4.67384C3.71654 3.93475 2.43252 2.89767 1.40367 1.62998C1.04281 2.26014 0.853191 2.9738 0.853672 3.69998C0.852392 4.37436 1.01789 5.03859 1.33543 5.63354C1.65297 6.22849 2.11269 6.73569 2.67367 7.10998C2.02165 7.09223 1.38356 6.91727 0.813672 6.59998V6.64998C0.818559 7.59487 1.14967 8.50907 1.75099 9.23794C2.35231 9.96681 3.18693 10.4656 4.11367 10.65C3.75693 10.7585 3.38655 10.8158 3.01367 10.82C2.75556 10.817 2.49809 10.7936 2.24367 10.75C2.50758 11.5628 3.01829 12.2731 3.70475 12.7821C4.3912 13.2911 5.21925 13.5735 6.07367 13.59C4.63087 14.7252 2.84956 15.3448 1.01367 15.35C0.679407 15.3511 0.345407 15.331 0.0136719 15.29C1.8881 16.5002 4.07248 17.1427 6.30367 17.14C7.84336 17.156 9.37081 16.865 10.7968 16.2841C12.2228 15.7031 13.5187 14.8439 14.6089 13.7565C15.6991 12.6691 16.5616 11.3754 17.1462 9.95088C17.7308 8.5264 18.0257 6.9997 18.0137 5.45997C18.0137 5.28997 18.0137 5.10997 18.0137 4.92998C18.7984 4.34479 19.4751 3.6274 20.0137 2.80998Z" fill="white"/>
</svg>
